<?xml version="1.0" encoding="utf-8"?>
<!-- Generator: Adobe Illustrator 16.0.3, SVG Export Plug-In . SVG Version: 6.00 Build 0)  -->
<!DOCTYPE svg PUBLIC "-//W3C//DTD SVG 1.1//EN" "http://www.w3.org/Graphics/SVG/1.1/DTD/svg11.dtd">
<svg version="1.1" id="Capa_1" xmlns="http://www.w3.org/2000/svg" xmlns:xlink="http://www.w3.org/1999/xlink" x="0px" y="0px"
	 width="1000px" height="266px" viewBox="0 0 1000 266" enable-background="new 0 0 1000 266" xml:space="preserve">
<g enable-background="new    ">
	<path fill="none" stroke="#FF4463" stroke-width="5" d="M144.562,260.033h-40.127l-6.869-45.912H48.761l-6.869,45.912H5.38
		L45.869,6.976h58.203L144.562,260.033z M53.822,179.777h38.32L73.344,51.803h-0.723L53.822,179.777z"/>
	<path fill="none" stroke="#FF4463" stroke-width="5" d="M246.146,260.033c-2.169-6.507-3.615-10.483-3.615-31.09v-39.767
		c0-23.498-7.954-32.174-26.029-32.174h-13.737v103.03h-39.766V6.976h60.011c41.212,0,58.926,19.16,58.926,58.203v19.883
		c0,26.029-8.314,42.658-26.029,50.974v0.723c19.883,8.314,26.391,27.113,26.391,53.504v39.043c0,12.291,0.361,21.329,4.338,30.729
		H246.146z M202.765,43.127v77.725h15.545c14.822,0,23.86-6.508,23.86-26.752V69.155c0-18.075-6.146-26.028-20.245-26.028H202.765z"
		/>
	<path fill="none" stroke="#FF4463" stroke-width="5" d="M437.021,260.033h-40.127l-6.869-45.912h-48.804l-6.869,45.912H297.84
		L338.329,6.976h58.203L437.021,260.033z M346.282,179.777h38.32L365.804,51.803h-0.723L346.282,179.777z"/>
	<path fill="none" stroke="#FF4463" stroke-width="5" d="M491.609,76.747h-0.723v183.286h-35.79V6.976h49.888l40.128,151.473h0.723
		V6.976h35.429v253.058h-40.851L491.609,76.747z"/>
	<path fill="none" stroke="#FF4463" stroke-width="5" d="M598.251,6.976h122.914v36.151h-41.573v216.906h-39.767V43.127h-41.574
		V6.976z"/>
	<path fill="none" stroke="#FF4463" stroke-width="5" d="M853.476,260.033h-40.128l-6.868-45.912h-48.804l-6.869,45.912h-36.513
		L754.783,6.976h58.203L853.476,260.033z M762.736,179.777h38.32L782.258,51.803h-0.723L762.736,179.777z"/>
	<path fill="none" stroke="#FF4463" stroke-width="5" d="M955.061,260.033c-2.169-6.507-3.615-10.483-3.615-31.09v-39.767
		c0-23.498-7.953-32.174-26.029-32.174h-13.737v103.03h-39.766V6.976h60.011c41.212,0,58.926,19.16,58.926,58.203v19.883
		c0,26.029-8.314,42.658-26.028,50.974v0.723c19.883,8.314,26.39,27.113,26.39,53.504v39.043c0,12.291,0.362,21.329,4.339,30.729
		H955.061z M911.679,43.127v77.725h15.545c14.822,0,23.86-6.508,23.86-26.752V69.155c0-18.075-6.146-26.028-20.245-26.028H911.679z"
		/>
</g>
</svg>
