<?xml version="1.0" encoding="utf-8"?>
<!-- Generator: Adobe Illustrator 16.0.3, SVG Export Plug-In . SVG Version: 6.00 Build 0)  -->
<!DOCTYPE svg PUBLIC "-//W3C//DTD SVG 1.1//EN" "http://www.w3.org/Graphics/SVG/1.1/DTD/svg11.dtd">
<svg version="1.1" id="Capa_1" xmlns="http://www.w3.org/2000/svg" xmlns:xlink="http://www.w3.org/1999/xlink" x="0px" y="0px"
	 width="1000px" height="361px" viewBox="0 0 1000 361" enable-background="new 0 0 1000 361" xml:space="preserve">
<g enable-background="new    ">
	<path fill="#FFFFFF" d="M235.241,331.937c-0.864-1.894-1.725-3.703-2.585-5.428c-0.864-1.721-1.725-3.271-2.584-4.653
		c-2.068-4.135-3.877-7.839-5.428-11.114c-1.551-3.271-3.017-7.063-4.395-11.373c0.517-2.929,1.422-7.84,2.714-14.733
		c1.292-6.891,2.799-14.431,4.523-22.617c1.721-8.183,3.574-16.499,5.557-24.944c1.979-8.44,4.007-15.679,6.075-21.712
		c1.894-5.34,4.006-11.026,6.333-17.061c2.327-6.029,4.911-11.587,7.755-16.672c2.843-5.081,5.9-9.435,9.176-13.054
		c3.271-3.618,6.806-5.771,10.598-6.462c1.034,1.382,2.152,2.456,3.36,3.231c1.204,0.775,2.327,1.337,3.36,1.68
		c2.928,4.136,5.771,7.626,8.53,10.469c2.754,2.844,6.03,5.646,9.822,8.4c-1.034,5.17-2.544,10.901-4.523,17.189
		c-1.983,6.292-4.051,12.625-6.204,18.999c-2.157,6.377-4.265,12.536-6.333,18.481c-2.068,5.944-3.708,11.074-4.911,15.379
		c-1.034,3.449-2.068,7.411-3.102,11.891c-0.865,3.792-1.769,8.36-2.714,13.699c-0.949,5.344-1.854,11.204-2.714,17.577
		c2.411-0.687,5.125-2.067,8.142-4.136c3.013-2.067,5.816-4.221,8.401-6.462c3.102-2.585,6.115-5.34,9.047-8.271
		c3.962-3.962,7.322-7.581,10.081-10.856c2.754-3.271,5.299-6.676,7.625-10.21c2.326-3.53,4.737-7.407,7.237-11.632
		c2.496-4.221,5.469-9.261,8.917-15.121c3.102-4.996,6.333-10.339,9.693-16.026c3.36-5.687,6.761-11.114,10.21-16.284
		c3.445-5.17,6.806-9.951,10.081-14.346c3.271-4.395,6.288-7.795,9.047-10.21c1.894,1.898,4.091,3.877,6.591,5.945
		c2.496,2.067,5.21,3.533,8.142,4.394c1.204,1.898,2.367,3.579,3.49,5.041c1.119,1.466,2.197,2.888,3.231,4.265
		c1.377,1.898,2.625,3.619,3.748,5.17c1.119,1.551,2.108,3.275,2.972,5.17c-0.173,1.381-0.477,3.19-0.904,5.428
		c-0.432,2.241-0.905,4.697-1.422,7.367c-0.517,2.673-1.078,5.388-1.68,8.142c-0.606,2.759-1.163,5.429-1.68,8.013
		c-1.725,7.755-3.017,13.615-3.877,17.577c-0.864,3.966-1.466,7.068-1.81,9.306c-0.347,2.241-0.562,4.136-0.646,5.687
		c-0.089,1.551-0.129,3.708-0.129,6.462c0,2.068,0.169,4.136,0.517,6.204c0.343,1.897,0.731,3.837,1.163,5.815
		c0.428,1.983,1.248,3.837,2.456,5.558l12.407-9.564c3.445-2.584,6.761-6.243,9.952-10.985c3.187-4.737,6.288-10.165,9.305-16.284
		c3.013-6.115,5.985-12.751,8.917-19.903c2.928-7.148,5.856-14.516,8.789-22.101c2.068-5.513,4.176-10.985,6.333-16.413
		c2.152-5.429,4.35-10.598,6.591-15.509c2.237-4.911,4.435-9.391,6.591-13.441c2.153-4.047,4.265-7.451,6.333-10.21
		c4.653,2.932,8.659,5.86,12.02,8.788c3.36,2.933,6.289,6.163,8.789,9.693c2.496,3.534,4.479,7.585,5.945,12.148
		c1.462,4.568,2.54,9.952,3.231,16.155c-3.792,7.237-7.327,14.648-10.598,22.229c-3.275,7.585-6.551,15.251-9.822,23.005
		c-4.136,9.996-8.4,19.948-12.795,29.855c-4.394,9.911-9.265,19.346-14.604,28.304c-5.343,8.962-11.333,17.188-17.965,24.685
		c-6.636,7.496-14.261,13.829-22.875,18.999c-2.416-0.518-4.483-0.775-6.204-0.775c-1.898,0-3.49,0.258-4.782,0.775
		c-1.292,0.517-2.456,1.203-3.489,2.067c-7.068-3.271-12.754-8.142-17.06-14.604c-4.309-6.462-8.53-13.655-12.666-21.583
		c-0.517-1.203-1.078-2.366-1.68-3.489c-0.606-1.119-1.252-2.282-1.938-3.489l-4.395-8.014l-2.584-4.911l-3.619,3.36l-5.428,4.911
		l-3.102,3.102c-5.343,5-10.771,9.867-16.284,14.604c-5.517,4.742-11.289,9.047-17.318,12.925
		c-6.034,3.877-12.452,7.023-19.257,9.435c-6.809,2.415-14.087,3.707-21.842,3.877c-1.381-0.687-2.629-1.293-3.748-1.81
		c-1.123-0.517-2.197-1.034-3.231-1.551c-3.966-1.895-7.237-3.704-9.822-5.428C241.703,338.23,238.687,335.556,235.241,331.937z"/>
	<path fill="#FFFFFF" d="M622.449,204.764c0.17,1.207,0.213,2.111,0.129,2.714c-0.089,0.605-0.174,1.163-0.259,1.68
		c-0.089,0.518-0.129,1.078-0.129,1.681c0,0.605,0.169,1.51,0.517,2.714c-3.619,5.86-7.799,9.866-12.536,12.02
		c-4.741,2.156-9.866,3.707-15.38,4.652c-5.518,0.949-11.159,1.938-16.931,2.973c-5.775,1.034-11.503,3.275-17.188,6.721
		c-2.242-0.86-4.266-0.86-6.074,0c-1.811,0.864-4.439,1.123-7.885,0.775c-1.033,1.034-2.326,1.769-3.877,2.197
		c-1.551,0.432-3.102,0.904-4.652,1.422c0.687,1.551,0.989,3.146,0.904,4.781c-0.089,1.64,0.129,2.973,0.646,4.007
		c6.029,0.517,12.706,0.432,20.032-0.259c7.322-0.687,14.516-1.118,21.583-1.292c0.17,0.864,0.086,1.422-0.258,1.68
		c-0.348,0.259-0.433,0.735-0.259,1.422c1.204,0.864,2.411,1.938,3.618,3.231c1.204,1.292,2.412,2.544,3.619,3.748
		c1.203,1.207,2.456,2.196,3.748,2.972c1.293,0.775,2.799,1.079,4.523,0.905c0.688,1.381,1.164,2.888,1.422,4.523
		c0.258,1.64,0.041,3.319-0.646,5.04c-2.758,1.898-5.517,3.837-8.271,5.816c-2.758,1.982-5.646,3.748-8.658,5.299
		c-3.018,1.551-6.204,2.803-9.564,3.748c-3.36,0.949-7.108,1.337-11.244,1.163c-0.864,0-1.51,0-1.938,0
		c-0.433,0-0.993-0.259-1.681-0.775c-1.381,0.864-3.319,1.122-5.815,0.775c-2.5-0.344-4.438-0.085-5.815,0.775
		c-1.898-0.86-4.181-1.248-6.85-1.163c-2.674,0.089-5.041-0.214-7.109-0.905c-2.758,3.619-5.258,7.496-7.496,11.632
		c-2.24,4.136-4.225,8.53-5.944,13.183c5.856,0.864,10.728,1.208,14.604,1.034c3.877-0.17,7.536-0.473,10.984-0.904
		c3.445-0.429,6.98-0.86,10.599-1.293c3.618-0.428,8.183-0.558,13.7-0.388c3.444-1.895,7.535-3.142,12.277-3.748
		c4.737-0.602,9.088-1.591,13.053-2.973c1.378,0.518,2.586,1.422,3.619,2.715c1.034,1.292,2.023,2.5,2.973,3.618
		c0.945,1.123,1.938,2.112,2.973,2.973c1.033,0.864,2.326,1.208,3.877,1.034c0.688,0.69,1.164,1.511,1.422,2.455
		c0.258,0.949,0.473,1.854,0.646,2.714c0.17,0.865,0.473,1.596,0.904,2.197c0.428,0.606,1.163,0.82,2.197,0.646
		c-2.585,5.687-5.558,10.04-8.918,13.054c-3.359,3.017-7.197,5.299-11.502,6.85c-4.31,1.551-9.092,2.759-14.346,3.619
		c-5.259,0.864-11.074,1.897-17.447,3.102c-1.552,0.343-2.844,0.299-3.878-0.13c-1.034-0.432-2.241-0.646-3.618-0.646
		c-3.967,0.86-8.704,1.636-14.217,2.326c-5.518,0.687-11.115,0.945-16.802,0.775c-5.687-0.174-11.114-0.904-16.284-2.197
		c-5.17-1.292-9.395-3.574-12.666-6.85c-1.381-1.204-2.286-2.625-2.714-4.265c-0.432-1.636-1.595-2.884-3.49-3.748
		c-0.173-2.238-0.517-4.738-1.034-7.496c-0.517-2.755-1.034-5.643-1.551-8.659c-0.517-3.014-0.905-5.985-1.164-8.918
		c-0.258-2.928-0.129-5.598,0.388-8.013c0.517-2.585,1.591-4.911,3.231-6.979c1.636-2.067,2.197-4.305,1.68-6.721
		c0.86-0.169,1.377-0.646,1.551-1.421c0.169-0.775,0.86-1.075,2.068-0.905c1.034-3.102,2.152-6.029,3.36-8.788
		c1.204-2.755,2.456-5.429,3.748-8.013c1.292-2.585,2.584-5.211,3.876-7.884c1.293-2.67,2.541-5.643,3.748-8.918
		c-2.414-2.237-4.18-4.693-5.298-7.367c-1.123-2.669-1.938-5.339-2.456-8.013c-0.517-2.67-0.949-5.428-1.292-8.271
		c-0.347-2.843-0.949-5.727-1.81-8.659c1.721-2.585,3.833-4.693,6.333-6.333c2.496-1.636,5.21-2.973,8.142-4.006
		c2.928-1.034,6.115-1.895,9.564-2.585c3.445-0.687,7.063-1.462,10.855-2.326c6.891-2.238,13.054-3.963,18.482-5.17
		c5.428-1.204,10.768-2.197,16.025-2.973c5.254-0.775,10.727-1.507,16.414-2.197c5.686-0.687,12.148-1.721,19.386-3.102
		c1.551,1.551,3.013,2.326,4.395,2.326c0.687-1.551,1.507-2.023,2.456-1.422c0.944,0.606,1.332,0.13,1.162-1.421
		c1.721,2.932,3.918,5.388,6.592,7.366C616.201,201.707,619.174,203.386,622.449,204.764z"/>
	<path fill="#FFFFFF" d="M758.152,308.157c1.033,0.517,1.635,1.382,1.809,2.585c0.17,1.208,0.17,2.156,0,2.844
		c-3.102,3.966-5.258,6.72-6.461,8.271c-1.209,1.552-2.068,2.715-2.586,3.49c-0.516,0.775-1.078,1.422-1.68,1.938
		c-0.605,0.517-1.938,1.64-4.006,3.36c-7.756,4.652-15.727,8.788-23.91,12.407c-8.187,3.618-16.761,6.118-25.719,7.496
		c-1.381,1.894-4.007,3.23-7.884,4.006c-3.878,0.775-7.456,1.507-10.728,2.197c-0.69-0.348-1.078-0.819-1.163-1.422
		c-0.089-0.605-0.477-1.078-1.163-1.421c-0.174,1.72-0.949,2.625-2.326,2.714c-1.381,0.085-3.062-0.259-5.041-1.034
		c-1.982-0.775-4.051-1.81-6.203-3.102c-2.156-1.293-4.006-2.456-5.557-3.489c-0.865,1.377-1.77,2.754-2.715,4.136
		c-0.949,1.377-2.112,2.326-3.489,2.843c-1.898-0.348-3.319-0.605-4.265-0.775c-0.949-0.174-1.854,0.17-2.715,1.034
		c-1.033-0.518-1.854-1.123-2.455-1.81c-0.605-0.69-1.208-1.337-1.81-1.938c-0.606-0.606-1.292-1.163-2.067-1.681
		c-0.775-0.517-1.854-0.944-3.231-1.292c0.343-0.687,0.169-1.765-0.517-3.231c-0.691-1.462-1.725-2.366-3.102-2.714
		c0.686-1.203,0.387-2.714-0.905-4.523s-2.286-3.833-2.973-6.074c0.343-1.895,0.603-3.962,0.775-6.203
		c0.17-2.238,1.204-3.53,3.103-3.878c-0.174-1.203-0.433-2.237-0.775-3.102c-0.348-0.86-0.691-1.721-1.035-2.585
		c1.204-1.034,2.068-2.282,2.586-3.748c0.517-1.462,0.944-2.973,1.292-4.523c0.343-1.551,0.775-3.102,1.292-4.652
		c0.518-1.551,1.463-2.844,2.844-3.877c1.551-5.17,2.754-9.003,3.619-11.503c0.859-2.496,1.506-4.951,1.938-7.367
		c0.429-2.411,0.945-4.995,1.551-7.754c0.603-2.755,1.681-6.204,3.232-10.34c-0.174-2.585,0.084-4.866,0.775-6.85
		c0.686-1.979,1.421-3.962,2.196-5.945c0.775-1.979,1.422-4.047,1.938-6.203c0.518-2.152,0.428-4.693-0.258-7.625
		c-2.416,0.173-4.137,0.993-5.17,2.455c-1.034,1.466-1.725,3.405-2.068,5.816c-1.381,1.381-3.061,2.027-5.04,1.938
		c-1.983-0.085-3.748,0.129-5.299,0.646c-6.034-2.411-11.03-5.855-14.992-10.339c-3.962-4.479-7.148-9.733-9.563-15.768
		c1.551-3.962,3.877-7.277,6.979-9.951c3.102-2.67,6.632-4.911,10.598-6.721c3.963-1.81,8.184-3.271,12.666-4.395
		c4.479-1.118,8.789-2.197,12.924-3.23c6.721-1.204,13.441-2.585,20.162-4.136c6.721-1.552,13.958-2.068,21.713-1.552
		c1.033-0.517,2.281-0.815,3.748-0.904c1.461-0.085,2.973-0.129,4.523-0.129s3.057-0.041,4.523-0.13
		c1.461-0.084,2.714-0.388,3.748-0.904c0.859,1.034,2.107,1.68,3.748,1.938c1.635,0.259,3.4,1.078,5.299,2.456
		c2.068-1.551,3.832-1.895,5.299-1.034c1.461,0.864,2.799,1.81,4.006,2.843c1.203,1.034,2.367,1.983,3.49,2.844
		c1.119,0.864,2.281,1.292,3.488,1.292c1.205,1.552,2.715,3.018,4.523,4.395c1.811,1.382,3.531,2.803,5.17,4.265
		c1.637,1.467,3.014,3.062,4.137,4.782c1.119,1.725,1.68,3.708,1.68,5.945c-0.174,0.864,0.084,1.381,0.775,1.551
		c0.688,0.174,1.203,0.517,1.551,1.034c0.17,5.343-0.646,9.951-2.455,13.829c-1.811,3.877-4.051,7.455-6.721,10.727
		c-2.674,3.275-5.602,6.377-8.789,9.306c-3.189,2.932-6.074,6.034-8.658,9.305c1.721,2.242,3.703,4.225,5.945,5.945
		c2.236,1.725,4.523,3.449,6.85,5.17c2.326,1.725,4.523,3.534,6.59,5.428c2.068,1.898,3.789,4.136,5.17,6.721
		c0.344,0.348,0.775,0.646,1.293,0.905c0.518,0.258,1.033,0.562,1.551,0.904c0.518,1.725,1.203,3.489,2.068,5.299
		c0.859,1.81,1.592,3.534,2.197,5.17c0.602,1.64,0.988,3.102,1.162,4.395C759.355,306.218,759.012,307.296,758.152,308.157z
		 M712.659,221.824c-8.788-0.344-17.536,0.432-26.235,2.326c-8.704,1.898-15.986,4.567-21.842,8.013
		c2.928,2.415,5.9,4.568,8.917,6.462c3.013,1.898,5.384,4.483,7.108,7.755c6.721-2.755,12.666-6.244,17.836-10.469
		C703.612,231.69,708.35,226.994,712.659,221.824z M716.02,304.28c0.518-1.721,1.463-3.102,2.844-4.136
		c1.377-1.034,2.754-2.023,4.135-2.973c1.377-0.945,2.586-1.979,3.619-3.102c1.033-1.119,1.463-2.715,1.293-4.782
		c-5.518-2.928-10.559-4.693-15.121-5.299c-4.568-0.602-8.878-0.602-12.925,0c-4.051,0.605-7.929,1.511-11.632,2.714
		c-3.707,1.208-7.455,2.068-11.244,2.585c-1.898,5-3.877,10.428-5.945,16.284c-2.067,5.86-4.051,11.547-5.945,17.061
		c5.17-0.688,9.908-1.766,14.217-3.231c4.306-1.462,8.486-3.058,12.537-4.782c4.047-1.721,8.013-3.489,11.891-5.299
		C707.619,307.51,711.71,305.831,716.02,304.28z"/>
</g>
<g enable-background="new    ">
	<path fill="none" stroke="#FF4463" stroke-width="5" d="M144.562,260.034h-40.127l-6.869-45.912H48.761l-6.869,45.912H5.38
		L45.869,6.976h58.203L144.562,260.034z M53.822,179.778h38.32L73.344,51.803h-0.723L53.822,179.778z"/>
	<path fill="none" stroke="#FF4463" stroke-width="5" d="M246.146,260.034c-2.169-6.507-3.615-10.483-3.615-31.09v-39.767
		c0-23.498-7.954-32.174-26.029-32.174h-13.737v103.03h-39.766V6.976h60.011c41.212,0,58.926,19.16,58.926,58.203v19.883
		c0,26.029-8.314,42.658-26.029,50.974v0.723c19.883,8.314,26.391,27.113,26.391,53.504v39.043c0,12.291,0.361,21.329,4.338,30.729
		H246.146z M202.765,43.127v77.725h15.545c14.822,0,23.86-6.508,23.86-26.752V69.156c0-18.075-6.146-26.028-20.245-26.028H202.765z"
		/>
	<path fill="none" stroke="#FF4463" stroke-width="5" d="M437.021,260.034h-40.127l-6.869-45.912h-48.804l-6.869,45.912H297.84
		L338.329,6.976h58.203L437.021,260.034z M346.282,179.778h38.32L365.804,51.803h-0.723L346.282,179.778z"/>
	<path fill="none" stroke="#FF4463" stroke-width="5" d="M491.609,76.748h-0.723v183.286h-35.79V6.976h49.888l40.128,151.473h0.723
		V6.976h35.429v253.058h-40.851L491.609,76.748z"/>
	<path fill="none" stroke="#FF4463" stroke-width="5" d="M598.251,6.976h122.914v36.151h-41.573v216.906h-39.767V43.127h-41.574
		V6.976z"/>
	<path fill="none" stroke="#FF4463" stroke-width="5" d="M853.476,260.034h-40.128l-6.868-45.912h-48.804l-6.869,45.912h-36.513
		L754.783,6.976h58.203L853.476,260.034z M762.736,179.778h38.32L782.258,51.803h-0.723L762.736,179.778z"/>
	<path fill="none" stroke="#FF4463" stroke-width="5" d="M955.061,260.034c-2.169-6.507-3.615-10.483-3.615-31.09v-39.767
		c0-23.498-7.953-32.174-26.029-32.174h-13.737v103.03h-39.766V6.976h60.011c41.212,0,58.926,19.16,58.926,58.203v19.883
		c0,26.029-8.314,42.658-26.028,50.974v0.723c19.883,8.314,26.39,27.113,26.39,53.504v39.043c0,12.291,0.362,21.329,4.339,30.729
		H955.061z M911.679,43.127v77.725h15.545c14.822,0,23.86-6.508,23.86-26.752V69.156c0-18.075-6.146-26.028-20.245-26.028H911.679z"
		/>
</g>
</svg>
